<?xml version="1.0" standalone="no"?>
<!DOCTYPE svg PUBLIC "-//W3C//DTD SVG 20010904//EN"
 "http://www.w3.org/TR/2001/REC-SVG-20010904/DTD/svg10.dtd">
<svg version="1.0" xmlns="http://www.w3.org/2000/svg"
 width="576.000000pt" height="576.000000pt" viewBox="0 0 576.000000 576.000000"
 preserveAspectRatio="xMidYMid meet">
<metadata>
Created by potrace 1.14, written by Peter Selinger 2001-2017
</metadata>
<g transform="translate(0.000000,576.000000) scale(0.100000,-0.100000)"
fill="#000000" stroke="none">
<path d="M962 3477 c-43 -37 -109 -96 -128 -115 -8 -7 -14 -12 -14 -10 0 2
-28 -22 -61 -54 -34 -32 -66 -58 -71 -58 -5 0 -6 -4 -3 -10 3 -5 2 -10 -4 -10
-10 0 -34 -20 -117 -97 -20 -18 -40 -33 -46 -33 -6 0 -9 -3 -5 -6 3 -4 -8 -17
-26 -29 -18 -12 -31 -27 -29 -34 1 -7 -2 -10 -7 -7 -5 4 -17 -4 -25 -16 -9
-12 -16 -19 -16 -15 0 4 -18 -10 -39 -31 -22 -21 -58 -54 -80 -72 -23 -19 -41
-39 -41 -45 0 -7 217 -10 702 -10 l702 0 65 -69 c37 -38 85 -89 109 -113 l43
-43 0 -125 c1 -106 3 -125 17 -129 10 -3 64 -5 121 -4 100 1 105 0 120 -23 9
-13 35 -45 58 -70 l43 -46 256 1 c141 1 258 -2 260 -6 3 -4 15 -4 27 1 25 9
68 8 84 -2 7 -4 14 -3 18 2 3 6 11 8 18 6 21 -8 77 -13 77 -6 0 8 78 7 86 -1
3 -3 18 -3 32 1 23 6 77 7 92 1 3 -1 10 -1 15 0 13 3 177 3 190 0 6 -1 15 -1
20 0 27 7 305 4 305 -3 0 -5 5 -5 12 -1 15 9 195 11 231 2 15 -3 27 -4 27 0 0
9 413 8 428 -2 7 -4 12 -4 12 1 0 12 284 10 292 -2 5 -7 8 -7 8 0 0 11 160 12
178 1 6 -3 13 -3 15 1 3 5 160 8 350 8 201 0 345 4 344 9 -1 5 -15 24 -32 41
-16 18 -45 49 -62 70 -18 20 -33 33 -33 29 0 -5 -7 2 -16 15 -18 25 -53 65
-146 165 -32 33 -58 64 -58 69 0 4 -7 7 -15 7 -8 0 -15 5 -15 10 0 6 -26 37
-57 69 -32 31 -96 99 -143 151 -47 51 -103 112 -125 136 -22 23 -75 80 -118
127 -43 46 -105 113 -138 148 -32 34 -59 67 -59 72 0 4 -4 5 -10 2 -6 -3 -10
-1 -10 5 0 6 -18 29 -40 51 -21 21 -38 39 -36 39 2 0 -12 17 -31 38 -19 20
-39 36 -44 35 -5 -2 -9 1 -9 6 0 6 -646 10 -1705 10 l-1706 0 -37 -32z m1144
-920 c3 -3 6 -11 8 -19 1 -7 5 -18 9 -25 4 -7 -4 -24 -19 -40 -14 -15 -22 -21
-18 -13 6 12 5 13 -7 3 -8 -7 -24 -10 -35 -7 -16 4 -20 14 -21 60 l-1 55 39
-4 c22 -2 42 -7 45 -10z m444 -95 c0 -1 -13 -1 -29 0 -30 2 -30 1 -4 78 3 9
11 -3 19 -30 7 -25 14 -46 14 -48z"/>
<path d="M345 2670 c-4 -6 -11 -8 -16 -5 -5 4 -27 -4 -48 -16 -99 -55 -78
-157 37 -175 24 -3 50 -13 58 -22 14 -14 14 -16 -1 -25 -20 -11 -93 -1 -113
16 -14 11 -28 0 -52 -44 -14 -24 9 -48 50 -52 20 -2 40 -6 45 -9 10 -5 98 -2
125 4 25 7 76 36 89 51 6 8 14 31 16 51 4 27 -1 41 -19 61 -14 14 -34 27 -45
28 -12 1 -21 4 -21 7 0 3 -13 5 -30 6 -38 1 -64 22 -50 39 12 14 90 11 100 -4
7 -13 33 9 47 41 10 22 9 27 -5 33 -42 18 -159 28 -167 15z"/>
<path d="M1068 2675 c-2 -2 -2 -39 -1 -82 1 -43 2 -116 3 -164 l0 -85 228 0
c218 1 227 2 236 21 7 17 19 21 69 22 51 1 60 -1 64 -18 6 -23 1 -21 91 -23
70 -2 86 5 63 29 -4 6 -21 43 -36 83 -16 39 -32 72 -37 72 -4 0 -8 9 -8 19 0
11 -5 21 -11 23 -7 2 -13 17 -15 33 -2 15 -8 31 -14 35 -7 4 -11 11 -11 16 1
5 -39 10 -89 11 -83 1 -90 0 -90 -18 0 -10 -4 -19 -8 -19 -4 0 -16 -24 -27
-52 -24 -69 -93 -208 -103 -208 -4 0 -6 15 -4 33 3 27 0 34 -15 35 -32 3 -117
1 -123 -3 -9 -6 -10 12 -10 137 l1 107 -74 0 c-41 0 -76 -2 -79 -4z m548 -126
c6 -29 12 -55 19 -71 4 -11 3 -18 -5 -18 -6 0 -9 -4 -6 -8 7 -12 -43 -7 -56 6
-7 7 -8 12 -2 12 6 0 11 6 11 13 3 44 8 67 16 67 4 0 5 5 1 11 -4 7 -1 10 6 7
7 -2 15 -11 16 -19z"/>
<path d="M606 2662 c-2 -4 -3 -75 -3 -159 1 -144 2 -152 22 -156 28 -7 104 -2
112 7 4 4 8 28 9 54 2 70 3 72 19 66 8 -4 12 -10 10 -15 -3 -4 3 -14 15 -21
11 -7 20 -17 20 -21 0 -5 7 -15 15 -23 8 -8 18 -22 23 -31 7 -11 27 -15 73
-17 35 0 67 -5 71 -11 5 -6 8 -5 8 3 0 7 5 10 10 7 22 -13 8 20 -20 49 -97
102 -100 107 -85 135 13 24 24 37 94 114 l26 28 -87 -2 -88 -2 -32 -51 c-18
-28 -36 -52 -40 -54 -5 -2 -8 -10 -8 -18 0 -8 -6 -14 -13 -14 -9 0 -11 19 -10
69 l2 70 -69 0 c-38 0 -71 -3 -74 -7z"/>
</g>
</svg>
